HIERARCHY
ROOT Hips
{
	OFFSET -3.958830 18.904000 13.208200
	CHANNELS 6 Xposition Yposition Zposition Zrotation Yrotation Xrotation 
	JOINT LHipJoint
	{
		OFFSET 0.000000 0.000000 0.000000
		CHANNELS 3 Zrotation Yrotation Xrotation
		JOINT LeftUpLeg
		{
			OFFSET 1.800000 -1.400000 0.085000
			CHANNELS 3 Zrotation Yrotation Xrotation
			JOINT LeftLeg
			{
				OFFSET 2.215000 -6.000000 0.000000
				CHANNELS 3 Zrotation Yrotation Xrotation
				JOINT LeftFoot
				{
					OFFSET 2.500000 -6.900000 0.000000
					CHANNELS 3 Zrotation Yrotation Xrotation
					JOINT LeftToeBase
					{
						OFFSET 0.200000 -0.500000 1.950000
						CHANNELS 3 Zrotation Yrotation Xrotation
						End Site
						{
							OFFSET 0.000000 0.000000 0.000000
						}
					}
				}
			}
		}
	}
	JOINT RHipJoint
	{
		OFFSET 0.000000 0.000000 0.000000
		CHANNELS 3 Zrotation Yrotation Xrotation
		JOINT RightUpLeg
		{
			OFFSET -1.800000 -1.400000 0.085000
			CHANNELS 3 Zrotation Yrotation Xrotation
			JOINT RightLeg
			{
				OFFSET -2.215000 -6.000000 0.000000
				CHANNELS 3 Zrotation Yrotation Xrotation
				JOINT RightFoot
				{
					OFFSET -2.500000 -6.900000 0.000000
					CHANNELS 3 Zrotation Yrotation Xrotation
					JOINT RightToeBase
					{
						OFFSET -0.200000 -0.500000 1.950000
						CHANNELS 3 Zrotation Yrotation Xrotation
						End Site
						{
							OFFSET 0.000000 0.000000 0.000000
						}
					}
				}
			}
		}
	}
	JOINT LowerBack
	{
		OFFSET 0.000000 0.000000 0.000000
		CHANNELS 3 Zrotation Yrotation Xrotation
		JOINT Spine
		{
			OFFSET -0.087000 1.940000 -0.288900
			CHANNELS 3 Zrotation Yrotation Xrotation
			JOINT Spine1
			{
				OFFSET 0.000000 1.950000 0.060000
				CHANNELS 3 Zrotation Yrotation Xrotation
				JOINT Neck
				{
					OFFSET 0.000000 0.000000 0.000000
					CHANNELS 3 Zrotation Yrotation Xrotation
					JOINT Neck1
					{
						OFFSET 0.000000 1.600000 0.340000
						CHANNELS 3 Zrotation Yrotation Xrotation
						JOINT Head
						{
							OFFSET 0.000000 1.667000 -0.240000
							CHANNELS 3 Zrotation Yrotation Xrotation
							End Site
							{
								OFFSET 0.000000 0.000000 0.000000
							}
						}
					}
				}
				JOINT LeftShoulder
				{
					OFFSET 0.000000 0.000000 0.000000
					CHANNELS 3 Zrotation Yrotation Xrotation
					JOINT LeftArm
					{
						OFFSET 2.700000 1.550000 -0.730000
						CHANNELS 3 Zrotation Yrotation Xrotation
						JOINT LeftForeArm
						{
							OFFSET 5.450000 0.000000 0.000000
							CHANNELS 3 Zrotation Yrotation Xrotation
							JOINT LeftHand
							{
								OFFSET 3.450000 0.000000 0.000000
								CHANNELS 3 Zrotation Yrotation Xrotation
								JOINT LeftHandIndex1
								{
									OFFSET 0.750000 0.000000 0.000000
									CHANNELS 3 Zrotation Yrotation Xrotation
									End Site
									{
										OFFSET 0.000000 0.000000 0.000000
									}
								}
							}
						}
					}
				}
				JOINT RightShoulder
				{
					OFFSET 0.000000 0.000000 0.000000
					CHANNELS 3 Zrotation Yrotation Xrotation
					JOINT RightArm
					{
						OFFSET -2.700000 1.550000 -0.730000
						CHANNELS 3 Zrotation Yrotation Xrotation
						JOINT RightForeArm
						{
							OFFSET -5.450000 0.000000 0.000000
							CHANNELS 3 Zrotation Yrotation Xrotation
							JOINT RightHand
							{
								OFFSET -3.450000 0.000000 0.000000
								CHANNELS 3 Zrotation Yrotation Xrotation
								JOINT RightHandIndex1
								{
									OFFSET -0.750000 0.000000 0.000000
									CHANNELS 3 Zrotation Yrotation Xrotation
									End Site
									{
										OFFSET 0.000000 0.000000 0.000000
									}
								}
							}
						}
					}
				}
			}
		}
	}
}
MOTION
Frames: 14
Frame Time: 0.016667
-1.583910 15.664930 -5.417400 -2.071351 -9.668075 -7.203230 -15.844963 9.161345 7.063929 35.544076 8.508413 -42.339706 -50.283755 38.160441 37.644381 1.628311 13.485363 -0.000156 0.684770 0.222410 0.516500 18.425296 -6.359345 4.278543 -44.590383 12.975664 -17.793478 64.360456 -22.303602 19.321720 -2.198358 -9.211034 1.173203 -0.028990 -0.214320 0.292350 -3.259222 -2.496953 -10.847285 22.590751 -2.735886 40.960977 -4.866468 6.540451 -0.111609 5.621755 -10.874100 -16.690807 -25.258031 9.783760 55.434021 -2.413770 -4.622820 -32.090420 -33.405297 -13.688710 6.727902 -54.025711 18.745158 -18.212762 -11.700085 -30.109295 -1.417508 -2.902766 2.817189 1.214650 -0.467620 0.470390 0.199560 22.604596 30.778106 11.860725 48.737045 14.899937 -7.351489 113.952801 55.393007 57.417418 2.353055 -1.424543 -0.068450 0.274200 -0.051970 -0.289430 
-1.602640 15.601470 -5.409020 -1.939234 -9.876735 -7.585515 -15.844022 9.094817 7.019305 35.980250 9.454549 -41.788674 -50.637633 39.356994 37.998712 1.670297 13.501232 0.009559 0.693440 0.243400 0.515240 18.448365 -6.306269 4.389356 -46.217716 13.267817 -17.499398 67.054123 -22.314572 18.027898 -2.225293 -9.224587 1.190949 -0.018280 -0.214060 0.280820 -3.300055 -2.351743 -10.881576 24.113458 -2.258135 39.501517 -3.952523 6.944919 2.095729 6.063972 -11.213541 -17.274387 -25.178893 9.998015 56.588086 -3.412630 -4.964550 -30.857310 -33.143491 -13.562637 7.178105 -56.802349 19.131461 -20.533498 -10.907292 -36.673061 -1.333583 -2.844219 2.856653 1.191950 -0.457510 0.464450 0.209890 21.586976 31.497104 12.433451 48.991930 15.952463 -8.064003 119.591121 58.547788 65.956831 2.397663 -1.243582 -0.060960 0.279550 -0.065530 -0.281540 
-1.619370 15.549590 -5.401990 -1.733371 -10.041427 -8.113608 -15.832060 9.055093 6.972300 36.204400 10.261824 -41.296261 -50.044835 41.001917 39.557169 1.710704 13.616377 -0.019000 0.692440 0.247780 0.509960 18.470636 -6.302748 4.469612 -47.357057 13.700666 -17.355824 68.937716 -22.475480 17.382481 -2.253528 -9.254494 1.195763 -0.018530 -0.215800 0.281790 -3.351777 -2.174258 -10.910033 25.579033 -1.725170 38.411028 -3.455376 7.540272 3.915445 6.586923 -11.127890 -17.940212 -24.321299 9.981471 58.065630 -4.289710 -4.966180 -30.097290 -33.391571 -13.873530 7.651744 -58.423471 19.190906 -22.028640 -9.497670 -41.957142 -1.563422 -2.793645 2.893460 1.192270 -0.449650 0.466490 0.211510 20.931901 32.176302 13.240400 49.573162 15.896163 -10.499319 124.447890 62.464310 75.332440 2.427363 -0.907542 -0.058700 0.280000 -0.063120 -0.283070 
-1.631660 15.516110 -5.389570 -1.215273 -9.754059 -8.926939 -15.819103 9.118233 6.878838 35.711364 10.225383 -40.675968 -48.295440 42.319520 42.008169 1.745191 13.836134 -0.083782 0.668700 0.222940 0.513280 18.467751 -6.350042 4.512657 -48.211660 13.864641 -17.035568 69.959297 -22.942120 17.332852 -2.265577 -9.287992 1.197417 -0.026780 -0.218590 0.264990 -3.344534 -2.126643 -10.906271 26.696497 -1.206529 37.732207 -2.636851 7.983760 5.624739 7.168774 -11.232238 -18.827840 -24.194704 9.819830 59.522801 -5.406570 -5.473330 -30.004070 -33.641557 -14.539030 8.106598 -60.006890 18.886165 -23.406136 -7.111112 -46.529226 -2.408596 -2.764491 2.868600 1.199680 -0.448360 0.464930 0.188810 20.311078 33.442136 14.255463 49.905879 15.482252 -13.158782 131.948936 64.219866 86.657767 2.348563 -0.672991 -0.074510 0.308840 -0.040700 -0.295950 
-1.626820 15.478130 -5.379050 -0.522816 -8.984460 -9.394640 -15.764719 9.100682 6.808451 34.561142 9.487993 -40.838239 -46.164051 43.856345 45.354151 1.852230 14.153018 -0.175138 0.674160 0.245710 0.512990 18.500878 -6.455861 4.571716 -49.102447 13.519807 -17.554626 70.758353 -23.800683 17.631435 -2.281725 -9.370530 1.180103 -0.024250 -0.237140 0.268020 -3.428596 -1.892666 -10.910005 27.798660 -0.657636 36.490327 -1.829137 8.252597 7.150189 7.425890 -11.112153 -19.552403 -23.267417 9.122771 60.436857 -5.971490 -5.991410 -28.795770 -32.559012 -15.020887 8.476584 -61.956472 17.835681 -24.415768 -5.425465 -50.330420 -3.145130 -2.745848 2.903683 1.168420 -0.440430 0.465910 0.180850 18.946464 34.313122 15.107600 51.067649 15.103247 -14.978905 140.358884 64.904135 98.082917 2.230299 -0.709558 -0.045800 0.281340 -0.048940 -0.288630 
-1.620450 15.461120 -5.372250 0.075836 -8.011981 -10.070033 -15.702977 9.099989 6.740445 33.416768 8.448008 -40.810931 -44.238023 44.456099 47.948849 1.932476 14.416879 -0.259714 0.708340 0.297260 0.523330 18.532213 -6.592007 4.588736 -49.849764 13.121807 -17.087129 71.075214 -24.358269 17.722983 -2.305999 -9.424031 1.158041 -0.007410 -0.266500 0.278010 -3.516634 -1.702461 -10.887653 28.865217 -0.291249 35.630962 -1.334533 8.407626 8.464350 7.540753 -10.775628 -20.174726 -22.251759 8.491083 61.383708 -5.599060 -6.410080 -28.375890 -31.593108 -15.980761 8.814672 -62.799092 16.449516 -24.714599 -4.877050 -52.750015 -3.556345 -2.716924 2.954791 1.156600 -0.448890 0.483650 0.187830 17.936853 35.237230 15.915360 52.109851 14.824118 -15.974636 147.828469 65.019215 107.352186 2.142287 -0.831464 -0.012050 0.248760 -0.073100 -0.280680 
-1.616910 15.483830 -5.386440 0.939244 -6.501403 -11.387497 -15.668587 9.295154 6.586394 31.444147 6.682308 -40.227830 -41.909828 43.739947 50.039623 1.963254 14.655736 -0.356102 0.744150 0.343770 0.558250 18.498246 -6.750275 4.566423 -50.233996 12.711353 -15.522246 70.343990 -24.645470 18.006453 -2.330531 -9.434447 1.127799 0.013750 -0.312800 0.281170 -3.452745 -1.845622 -10.833621 29.337604 -0.150777 35.883852 -1.121775 8.389131 10.234974 8.145381 -10.126551 -21.430361 -21.463332 7.964792 63.381347 -4.978280 -7.089480 -29.432670 -32.507236 -18.912470 9.606175 -62.058204 15.076307 -25.266994 -0.626773 -55.594396 -6.062487 -2.649016 2.950842 1.180050 -0.483310 0.526060 0.179480 18.008334 37.856853 17.398309 51.509147 14.012570 -17.526633 157.698347 64.676018 118.779736 2.053527 -0.947187 0.007340 0.245540 -0.088680 -0.286570 
-1.605230 15.523670 -5.407370 1.826407 -4.934983 -12.786197 -15.685403 9.637640 6.407448 29.019741 4.590871 -39.565453 -39.104143 42.540785 52.335441 1.947779 14.923207 -0.460567 0.747980 0.341670 0.575480 18.401415 -6.844314 4.511528 -50.411054 12.288507 -13.664766 69.034692 -24.828906 18.438244 -2.331753 -9.436538 1.114275 0.019710 -0.335940 0.261680 -3.234409 -2.360653 -10.764831 29.215879 -0.199007 37.021931 -0.708555 8.276939 11.473225 8.784895 -9.649605 -22.681652 -21.627409 7.936138 64.613689 -4.402900 -7.699970 -31.225660 -34.432669 -21.837155 10.279532 -60.069223 14.499077 -25.652221 3.258235 -57.814056 -8.682335 -2.590465 2.896981 1.229060 -0.513540 0.540330 0.157070 19.032640 40.458605 18.867905 49.828114 12.724867 -18.501900 167.531488 63.130664 129.461353 1.967333 -1.047262 -0.014240 0.274360 -0.071630 -0.310420 
-1.589160 15.584500 -5.449650 3.049334 -2.836794 -14.494208 -15.751453 10.187263 6.130791 25.484906 1.709814 -38.391571 -36.034371 40.280964 54.229992 1.880591 15.103981 -0.535229 0.735790 0.309060 0.590210 18.229340 -6.910517 4.443318 -50.679090 11.635081 -11.313054 67.119396 -24.924713 18.978269 -2.338222 -9.428377 1.097149 0.017970 -0.345100 0.248430 -2.837967 -3.280197 -10.663382 27.997264 -0.251912 39.306323 -0.206029 8.048594 12.515184 9.614417 -8.919201 -23.875478 -21.688352 7.787768 65.676551 -3.466000 -8.231480 -34.626930 -37.015265 -24.889899 10.911160 -57.113513 13.878836 -26.315338 10.791494 -62.032022 -14.092152 -2.525732 2.776017 1.315660 -0.550280 0.565220 0.138050 20.287926 43.025831 20.226114 47.084840 11.814241 -19.212603 177.613911 61.018220 141.212866 1.879169 -1.121145 -0.064700 0.328800 -0.041770 -0.343770 
-1.556250 15.643430 -5.471740 3.557229 -0.514338 -15.787983 -15.855895 10.738666 5.953530 22.381117 -1.133289 -37.783153 -32.334797 38.020999 56.971303 1.846888 15.271033 -0.591288 0.724100 0.272120 0.624120 18.034097 -6.908075 4.313537 -50.306891 10.744029 -8.504920 65.334156 -24.823149 19.032476 -2.345324 -9.373454 1.106794 -0.007240 -0.370360 0.248760 -2.385042 -4.367160 -10.591345 26.886372 -0.557796 41.303731 0.443138 7.739657 12.136107 10.334003 -7.846969 -24.437533 -20.340674 7.168884 67.053213 -3.571920 -8.018480 -37.873180 -39.908046 -26.442456 11.191641 -54.134606 14.518413 -26.854572 19.132746 -65.839487 -20.343392 -2.489592 2.631012 1.389980 -0.583200 0.597940 0.116570 21.751594 43.949712 21.003719 46.056119 10.012316 -20.122733 -173.789002 59.476798 152.570920 1.840108 -1.183339 -0.092490 0.351790 -0.029310 -0.379470 
-1.518700 15.701950 -5.503000 4.039608 0.987628 -16.414846 -16.006283 11.284005 5.807786 19.631519 -3.280472 -37.644084 -28.815544 35.903273 59.387165 1.833388 15.320223 -0.606992 0.661130 0.190260 0.599000 17.827075 -6.785033 4.198382 -49.832394 10.110925 -6.926125 63.388874 -24.607675 19.323286 -2.313754 -9.324985 1.117789 -0.066800 -0.380540 0.242070 -1.876168 -5.592417 -10.550561 25.405853 -0.554907 43.807668 1.524898 8.149318 10.704526 10.773228 -7.514613 -24.822947 -20.697705 7.156060 66.967094 -3.094250 -7.902770 -40.455670 -41.990384 -26.669322 11.019100 -52.349829 15.417398 -27.422764 27.552641 -70.224069 -27.621681 -2.493960 2.464517 1.425780 -0.608430 0.596270 0.083820 23.191585 44.179770 21.590470 45.570827 7.690692 -20.811514 -164.141971 56.735868 166.858046 1.883630 -1.250259 -0.112180 0.341830 0.005340 -0.395750 
-1.478910 15.757210 -5.548180 4.582985 1.811194 -16.733581 -16.110628 11.691453 5.640103 16.870409 -5.160527 -37.504050 -25.329468 33.729381 61.601724 1.835398 15.271019 -0.566066 0.622630 0.151910 0.573350 17.686313 -6.738239 4.112195 -49.338489 9.432394 -6.661520 60.953724 -24.698104 20.440608 -2.292809 -9.337797 1.128389 -0.105720 -0.368740 0.242050 -1.523451 -6.426934 -10.501316 23.786786 -0.210871 46.207632 2.593040 8.677585 10.047481 10.911468 -7.241370 -24.881589 -20.452526 6.579970 65.398676 -2.292920 -7.499390 -42.959380 -41.624857 -26.924486 10.730552 -51.404554 14.572339 -27.837183 40.498189 -74.097578 -38.641724 -2.534674 2.139667 1.434330 -0.612900 0.595970 0.087440 22.781159 44.574740 21.782551 45.507872 6.951582 -21.564638 -156.286068 53.235130 179.993492 1.997437 -1.237074 -0.120150 0.337740 0.007230 -0.391770 
-1.442780 15.830060 -5.613190 5.208480 1.581839 -17.663913 -16.140356 12.046853 5.357192 14.062916 -6.168026 -36.398479 -21.029442 31.225530 63.853601 1.777142 15.081901 -0.510919 0.626890 0.166640 0.567660 17.613332 -6.849557 4.047255 -48.370455 9.267730 -7.116689 57.317498 -24.786184 22.740059 -2.263132 -9.417672 1.093834 -0.099430 -0.364690 0.247040 -1.377568 -6.798154 -10.366899 22.637654 0.018189 49.169237 2.875236 8.634625 12.314488 11.433105 -7.445021 -25.461327 -20.964151 6.203683 61.608564 -1.154420 -7.237480 -45.819400 -39.419252 -28.775459 10.790991 -50.663524 12.336743 -28.445558 59.347159 -74.767726 -53.135269 -2.617679 1.592601 1.426890 -0.616090 0.592420 0.092650 19.852340 47.295745 22.093852 42.983178 9.290498 -21.971427 -154.159849 48.108286 -175.282386 2.088638 -1.201016 -0.117260 0.329190 -0.001170 -0.385590 
-1.412120 15.906160 -5.686880 5.794127 0.451195 -18.283871 -16.155764 12.348691 5.047639 11.672679 -6.428113 -35.332167 -16.696886 28.591478 65.521525 1.689995 14.732313 -0.413194 0.632040 0.204270 0.548050 17.570191 -6.981788 4.002262 -47.112895 9.291140 -8.674831 53.271933 -24.795551 25.660291 -2.226809 -9.526358 1.054095 -0.083320 -0.351190 0.264420 -1.294675 -6.952863 -10.222598 21.346865 0.604752 52.163753 2.932849 8.897432 14.772240 12.010770 -7.601716 -25.656418 -20.579520 5.205532 57.044744 -1.221820 -7.032280 -48.365730 -36.015403 -29.861935 10.757127 -50.196230 9.892317 -28.243206 74.947403 -72.812766 -64.589468 -2.760878 1.135241 1.394460 -0.599840 0.592300 0.107240 15.472456 49.680096 21.797504 40.688893 12.408391 -22.886202 -153.310097 41.528805 -170.733000 2.175910 -1.136638 -0.099820 0.321050 -0.011300 -0.362770 
